<?xml version="1.0" standalone="no"?>
<!DOCTYPE svg PUBLIC "-//W3C//DTD SVG 20010904//EN"
 "http://www.w3.org/TR/2001/REC-SVG-20010904/DTD/svg10.dtd">
<svg version="1.0" xmlns="http://www.w3.org/2000/svg"
 width="159.000000pt" height="156.000000pt" viewBox="0 0 159.000000 156.000000"
 preserveAspectRatio="xMidYMid meet">

<g transform="translate(0.000000,156.000000) scale(0.100000,-0.100000)"
fill="#000000" stroke="none">
<path d="M325 1546 c-147 -47 -262 -167 -300 -311 -12 -48 -15 -131 -15 -457
0 -256 4 -416 11 -450 27 -127 114 -239 230 -297 l62 -31 486 0 486 0 53 25
c112 52 193 143 231 262 22 67 22 78 19 508 l-3 440 -37 75 c-46 94 -121 168
-215 213 l-68 32 -450 2 c-344 2 -459 -1 -490 -11z m951 -252 c16 -4 23 -16
27 -49 8 -52 -8 -157 -30 -198 -14 -27 -14 -35 0 -86 23 -83 27 -123 16 -197
-13 -90 -58 -180 -122 -245 -65 -66 -129 -101 -226 -125 -61 -14 -84 -15 -140
-7 -36 6 -73 14 -81 17 -11 5 -19 -3 -28 -28 -25 -70 -83 -116 -163 -131 -92
-17 -199 57 -225 155 -14 54 -14 54 52 304 77 292 104 356 184 436 113 113
275 156 429 115 38 -10 59 -11 67 -4 44 37 176 60 240 43z"/>
<path d="M1134 1207 l-31 -12 53 -48 52 -47 11 50 c6 28 11 55 11 60 0 13 -58
11 -96 -3z"/>
<path d="M790 1180 c-84 -15 -170 -63 -209 -119 l-20 -28 27 4 c15 3 97 18
182 35 150 29 235 32 315 12 14 -4 10 4 -15 26 -63 56 -186 86 -280 70z"/>
<path d="M975 965 c-82 -19 -165 -34 -183 -35 -18 0 -73 13 -122 30 -50 16
-97 27 -105 24 -18 -7 -27 -36 -19 -58 7 -19 224 -91 267 -88 22 2 350 75 379
85 3 1 -1 19 -9 40 -19 45 -14 45 -208 2z"/>
<path d="M992 825 c-101 -23 -194 -40 -205 -38 -12 3 -63 18 -114 34 -51 16
-99 26 -107 23 -19 -7 -29 -36 -20 -57 8 -21 209 -87 261 -87 21 1 119 20 218
44 l180 42 3 42 c3 35 0 42 -15 41 -10 -1 -101 -20 -201 -44z"/>
<path d="M987 685 l-187 -44 -112 34 c-61 18 -117 31 -124 28 -18 -7 -30 -51
-17 -64 16 -16 216 -79 253 -79 20 0 105 16 189 35 83 19 154 35 157 35 9 0
44 65 44 83 0 21 21 24 -203 -28z"/>
<path d="M436 634 c-22 -75 -46 -178 -46 -200 0 -40 59 -94 104 -94 47 0 79
16 99 50 26 44 21 58 -39 112 -30 28 -68 74 -84 101 -22 39 -29 45 -34 31z"/>
<path d="M945 534 c-149 -37 -136 -37 -259 1 -64 20 -48 -3 27 -36 42 -20 68
-24 142 -23 81 0 96 3 151 31 33 17 66 38 73 47 8 9 12 16 10 15 -2 0 -67 -16
-144 -35z"/>
</g>
</svg>
